<svg xmlns="http://www.w3.org/2000/svg" viewBox="0 0 325.34 324"><defs><style>.cls-1{fill:#026335;}.cls-2{fill:#fff;}</style></defs><g id="레이어_2" data-name="레이어 2"><g id="레이어_1-2" data-name="레이어 1"><circle class="cls-1" cx="163.34" cy="162" r="162"/><path class="cls-2" d="M74.61,137.15a34.47,34.47,0,0,0-12.46-8.87,39.08,39.08,0,0,0-14.82-2.79,32.27,32.27,0,0,0-12.58,2.42,28.8,28.8,0,0,0-10,7A32.31,32.31,0,0,0,18,146.2a44.88,44.88,0,0,0-2.42,15.37q0,17.73,7.87,27.27t24,9.55a25.21,25.21,0,0,0,8.68-1.18,14.67,14.67,0,0,0,5.2-3.28V172h-21V159h35v42.85a40.5,40.5,0,0,1-14.18,6.7,60.94,60.94,0,0,1-15.72,2,51.06,51.06,0,0,1-19.65-3.5,38.3,38.3,0,0,1-14.18-9.88A42.56,42.56,0,0,1,3,181.77,64.26,64.26,0,0,1,0,161.69a54.68,54.68,0,0,1,3.5-20,44.54,44.54,0,0,1,9.64-15.23,41.9,41.9,0,0,1,14.61-9.64,49.36,49.36,0,0,1,18.43-3.38,59.29,59.29,0,0,1,16,2.09c5,1.39,14.2,6.75,14.2,6.75v14a1.19,1.19,0,0,1-.62,1.11A.77.77,0,0,1,74.61,137.15Z"/><path class="cls-2" d="M130.18,115l31.71,95H147.3l-8.67-27H105.14l-8.79,27H81.76l31.58-95Zm-8.36,13.26-2.45,9.09L108.81,171h26l-10.56-33.65Z"/><path class="cls-2" d="M235.61,137.15a34.44,34.44,0,0,0-12.46-8.86,39.07,39.07,0,0,0-14.81-2.79,32.2,32.2,0,0,0-12.58,2.41,28.84,28.84,0,0,0-10,7A32.36,32.36,0,0,0,179,146.2a45.13,45.13,0,0,0-2.41,15.37q0,17.73,7.87,27.27t24,9.54a25.49,25.49,0,0,0,8.68-1.17,14.55,14.55,0,0,0,5.2-3.29V172h-21V159h37v42.85a70.31,70.31,0,0,1-15.82,6.7,60.81,60.81,0,0,1-15.71,2,51,51,0,0,1-19.65-3.5A38.42,38.42,0,0,1,173,197.19a42.86,42.86,0,0,1-8.66-15.42,64.56,64.56,0,0,1-2.94-20.08,54.47,54.47,0,0,1,3.5-20,44.39,44.39,0,0,1,9.64-15.23,41.8,41.8,0,0,1,14.61-9.64,49.34,49.34,0,0,1,18.42-3.38,59.37,59.37,0,0,1,16,2.09c5,1.39,13.83,6.75,13.83,6.75v14a1.23,1.23,0,0,1-.62,1.12A.78.78,0,0,1,235.61,137.15Z"/><path class="cls-2" d="M291.55,115l31.71,95h-14.6L300,183H266.51l-8.79,27H243.13l31.58-95Zm-8.36,13.26-2.46,9.09L270.17,171h26l-10.56-33.65Z"/></g></g></svg>